<?xml version="1.0" standalone="no"?>
<!DOCTYPE svg PUBLIC "-//W3C//DTD SVG 20010904//EN"
 "http://www.w3.org/TR/2001/REC-SVG-20010904/DTD/svg10.dtd">
<svg version="1.0" xmlns="http://www.w3.org/2000/svg"
 width="625.000000pt" height="625.000000pt" viewBox="0 0 625.000000 625.000000"
 preserveAspectRatio="xMidYMid meet">

<g transform="translate(0.000000,625.000000) scale(0.100000,-0.100000)"
fill="#000000" stroke="none">
<path d="M3970 5750 c0 -5 -11 -10 -25 -10 -14 0 -42 -7 -62 -15 -19 -8 -44
-15 -54 -15 -11 0 -45 -13 -76 -30 -31 -16 -62 -30 -69 -30 -7 0 -19 -6 -26
-13 -7 -6 -39 -26 -71 -42 -32 -17 -69 -36 -82 -43 -14 -7 -25 -17 -25 -22 0
-5 -8 -11 -17 -14 -10 -4 -36 -23 -58 -42 -22 -20 -49 -44 -60 -53 -12 -9 -43
-43 -69 -76 -27 -32 -55 -65 -63 -73 -7 -8 -20 -27 -28 -43 -9 -16 -19 -29
-23 -29 -10 0 -98 -175 -137 -270 -35 -85 -57 -209 -62 -342 l-4 -108 108 0
c59 0 126 5 148 11 22 6 59 15 83 20 23 6 42 15 42 20 0 5 9 9 20 9 26 0 113
45 169 87 24 18 48 33 53 33 9 0 238 226 238 235 0 6 70 107 79 115 3 3 13 19
21 35 8 17 25 47 37 67 13 21 23 43 23 49 0 6 13 39 29 73 16 33 34 86 41 116
6 30 16 69 22 85 5 17 12 96 15 178 l6 147 -62 0 c-34 0 -61 -4 -61 -10z"/>
<path d="M3806 4399 c-38 -4 -73 -12 -79 -18 -6 -6 -20 -11 -30 -11 -23 0 -94
-22 -197 -60 -41 -16 -95 -34 -119 -40 -24 -6 -51 -15 -60 -20 -70 -35 -276
-100 -316 -100 -18 0 -99 23 -181 51 -82 28 -169 58 -194 66 -25 8 -61 22 -80
31 -19 9 -39 17 -45 17 -5 0 -15 4 -21 7 -10 7 -40 15 -149 42 -27 7 -59 17
-70 22 -32 14 -381 12 -397 -3 -6 -7 -24 -13 -39 -13 -15 0 -40 -5 -56 -11
-15 -6 -51 -17 -79 -24 -60 -16 -269 -117 -311 -150 -7 -5 -18 -15 -25 -20 -7
-6 -35 -26 -63 -45 -91 -62 -305 -293 -305 -329 0 -6 -4 -11 -9 -11 -5 0 -13
-10 -17 -22 -3 -13 -12 -30 -19 -38 -22 -26 -112 -211 -143 -295 -16 -44 -35
-107 -41 -140 -18 -87 -31 -137 -44 -160 -14 -27 -21 -594 -8 -710 5 -49 15
-110 21 -135 11 -43 19 -85 35 -195 4 -27 11 -54 15 -60 4 -5 11 -26 16 -45 9
-42 8 -35 22 -90 25 -92 47 -160 53 -160 4 0 10 -16 14 -36 3 -20 12 -50 20
-68 14 -32 28 -67 29 -76 3 -12 29 -77 41 -100 7 -14 15 -37 19 -52 3 -16 11
-28 16 -28 6 0 10 -6 10 -14 0 -16 44 -107 70 -146 9 -14 23 -41 30 -60 8 -19
17 -37 21 -40 3 -3 21 -32 38 -65 29 -55 89 -144 126 -188 8 -9 15 -19 15 -22
0 -8 101 -148 115 -160 6 -5 14 -15 16 -21 10 -28 237 -270 290 -309 8 -6 32
-24 54 -41 116 -88 351 -159 419 -125 11 5 48 14 81 20 72 11 228 66 307 107
14 8 34 14 43 14 9 0 31 6 48 14 28 12 59 21 92 27 6 1 21 6 35 11 35 14 171
31 260 31 78 1 245 -18 264 -30 6 -4 17 -8 26 -9 18 -2 163 -50 187 -62 10 -5
32 -17 50 -26 17 -9 39 -16 48 -16 9 0 31 -6 48 -13 107 -46 140 -52 293 -52
97 0 159 4 175 12 45 23 118 53 126 53 5 0 24 13 43 30 19 16 40 29 47 30 7 0
43 29 80 65 37 36 71 65 75 65 5 0 8 4 8 8 0 5 19 30 43 56 38 43 66 76 145
176 39 49 102 139 102 145 0 6 40 65 50 75 12 12 60 90 60 99 0 5 6 14 14 20
8 6 28 40 45 74 17 34 35 69 40 77 11 16 71 144 121 253 16 37 30 75 30 85 0
10 7 27 15 38 8 10 15 26 15 35 0 9 7 30 15 45 14 27 14 29 -8 35 -51 14 -194
99 -247 146 -14 13 -28 23 -32 23 -10 0 -155 146 -198 201 -82 102 -180 274
-180 316 0 10 -6 27 -14 38 -7 11 -16 39 -20 63 -3 24 -11 51 -16 60 -12 24
-34 213 -34 297 0 84 22 263 34 286 5 9 12 34 16 54 4 21 13 50 20 64 8 14 14
32 14 39 0 20 82 182 91 182 5 0 9 7 9 15 0 8 4 15 8 15 5 0 13 10 19 23 27
58 191 223 305 306 53 38 85 68 81 75 -13 23 -68 92 -90 113 -13 12 -23 24
-23 27 0 6 -60 66 -67 66 -3 0 -16 11 -29 25 -13 14 -27 25 -33 25 -5 0 -11 4
-13 9 -6 19 -174 123 -215 134 -24 6 -43 15 -43 19 0 4 -7 8 -15 8 -8 0 -15 4
-15 8 0 5 -6 9 -12 10 -7 1 -35 8 -63 16 -27 9 -70 21 -95 27 -25 6 -53 15
-62 20 -49 25 -360 36 -512 18z"/>
</g>
</svg>
