<?xml version="1.0" standalone="no"?>
<!DOCTYPE svg PUBLIC "-//W3C//DTD SVG 20010904//EN"
 "http://www.w3.org/TR/2001/REC-SVG-20010904/DTD/svg10.dtd">
<svg version="1.0" xmlns="http://www.w3.org/2000/svg"
 width="625.000000pt" height="625.000000pt" viewBox="0 0 625.000000 625.000000"
 preserveAspectRatio="xMidYMid meet">

<g transform="translate(0.000000,625.000000) scale(0.100000,-0.100000)"
fill="#000000" stroke="none">
<path d="M1815 6240 c-11 -4 -37 -26 -59 -48 -30 -32 -37 -45 -31 -63 15 -53
108 -197 452 -701 l113 -166 -67 -37 c-176 -97 -412 -310 -531 -480 -100 -142
-207 -384 -235 -532 l-6 -33 832 0 c2096 0 2521 1 2526 6 3 3 -5 46 -18 96
-97 379 -375 731 -746 942 l-75 43 28 39 c54 74 147 210 339 497 211 316 214
322 168 389 -37 54 -105 69 -197 42 -23 -7 -130 -153 -383 -524 -114 -168
-213 -310 -219 -317 -9 -9 -32 -7 -106 11 -193 47 -227 51 -465 51 -238 -1
-266 -4 -489 -56 -85 -20 -91 -21 -101 -4 -29 49 -303 456 -380 565 -150 213
-187 259 -220 275 -35 16 -98 19 -130 5z m755 -1426 l0 -137 -136 6 c-75 3
-138 8 -141 11 -3 3 -8 55 -11 117 -6 143 -11 139 160 139 l128 0 0 -136z
m1410 1 l0 -135 -145 0 -145 0 0 135 0 135 145 0 145 0 0 -135z"/>
<path d="M583 4145 c-119 -32 -206 -93 -244 -173 l-23 -47 1 -810 c2 -901 -2
-850 70 -919 21 -20 67 -51 103 -68 l65 -33 175 0 175 0 62 32 c71 38 128 85
147 122 23 45 27 167 28 861 1 677 -3 819 -27 876 -51 123 -342 210 -532 159z"/>
<path d="M5397 4130 c-67 -12 -164 -60 -215 -106 -36 -33 -44 -48 -53 -96 -15
-86 -7 -1602 9 -1650 24 -69 126 -140 237 -164 79 -17 237 -17 302 0 111 30
199 89 234 158 19 38 20 62 26 836 l6 797 -22 43 c-40 79 -115 137 -221 172
-45 15 -241 22 -303 10z"/>
<path d="M1460 2856 c0 -1131 7 -1359 43 -1459 66 -181 195 -283 416 -329 l99
-21 1 -386 c1 -427 4 -468 35 -514 30 -44 106 -93 183 -117 83 -25 265 -28
357 -4 111 28 203 102 225 181 7 22 14 206 18 436 l6 397 293 0 293 0 3 -422
c3 -406 4 -424 24 -458 28 -49 115 -107 199 -133 93 -29 264 -30 345 -3 115
39 199 97 222 155 7 16 13 185 17 446 l6 420 60 13 c232 50 356 135 430 297
59 129 60 136 58 635 -1 250 -7 644 -12 875 -6 231 -13 547 -17 701 l-6 282
-222 6 c-121 3 -738 10 -1371 16 -632 6 -1275 12 -1427 13 l-278 3 0 -1030z"/>
</g>
</svg>
